# xmcd
#
# Track frame offsets: 
#        150
#        34725
#        71359
#        128044
#        161053
#        192957
#        232150
#
# Disc length: 3298 seconds
#
# Revision: 1
# Processed by: cddbd v1.5.2PL0 Copyright (c) Steve Scherf et al.
# Submitted via: ExactAudioCopy v1.3
#
DISCID=5c0ce007
DTITLE=Médéric Collignon - Wax'In [Bussonnet, Godin, Vaillant]
DYEAR=2016
DGENRE=Jazz
TTITLE0=Wax'one
TTITLE1=Head cleaner
TTITLE2=Krom
TTITLE3=Raja
TTITLE4=Brrrutus
TTITLE5=Tolondule
TTITLE6=Listen to the silence
EXTD=
EXTT0=
EXTT1=
EXTT2=
EXTT3=
EXTT4=
EXTT5=
EXTT6=
PLAYORDER=
